<svg xmlns="http://www.w3.org/2000/svg" width="25.238" height="30.071" viewBox="0 0 25.238 30.071">
  <path id="Path" d="M25.037,19.662c-1.18-5.419-8.253-5.87-12.731-7.173-.278-.081-.557-.156-.837-.228-2.352-.606-4.766-1.545-4.51-4.474C7.334,1.6,19.69,1.056,21.3,6.91h3.455C23.238-.838,11.51-1.568,6.306,2.238A7.264,7.264,0,0,0,5.021,12.766c2.974,3.306,8.817,3.475,13.079,4.876,1.992.541,3.793,2.026,3.713,4.265-.522,6.909-14.431,6.483-15.456-.072V19.49H0v.929a3.184,3.184,0,0,1,2.88,1.417C4.171,33.889,27.635,32.328,25.037,19.662Z" transform="translate(0 0)" fill="#fff"/>
</svg>
