<svg xmlns="http://www.w3.org/2000/svg" width="149.157" height="46.742" viewBox="0 0 149.157 46.742">
  <g id="Sapian_Logo" transform="translate(-0.512 -0.205)">
    <path id="Path" d="M25.021,30.042h3.634L15.614,0H9.069V.946A3.244,3.244,0,0,1,12,2.39L0,30.042H3.586L14.3,5.354Z" transform="translate(92.958 0.241)" fill="#fff"/>
    <path id="Path-2" data-name="Path" d="M25.021,30.042h3.634L15.614,0H9.069V.946A3.244,3.244,0,0,1,12,2.39L0,30.042H3.586L14.3,5.354Z" transform="translate(26.892 0.241)" fill="#fff"/>
    <path id="Path-3" data-name="Path" d="M0,0V.946c3.348,0,3.594,3.108,3.608,3.8V30.068H7.143V0Z" transform="translate(82.77 0.215)" fill="#fff"/>
    <path id="Path-4" data-name="Path" d="M25.738,0V24.39L6.349.016V0H0V.949A3.368,3.368,0,0,1,3.544,4.021V30.068h2.8V5.705l19.38,24.363.009-.007v.007h2.8V0Z" transform="translate(121.127 0.215)" fill="#fff"/>
    <path id="Shape" d="M7.155,30.077H3.617V4.754C3.6,4.119,3.364.955,0,.955V.006H16.5c.113,0,.227-.006.34-.006a8.967,8.967,0,0,1,6,2.3,7.674,7.674,0,0,1,2.482,5.909,8.34,8.34,0,0,1-2.4,6.141c-1.593,1.591-4.043,2.4-7.282,2.4H7.155V30.076Zm0-26.916V13.676h8.607a6.046,6.046,0,0,0,4.287-1.409,5.331,5.331,0,0,0,1.5-4.059,4.66,4.66,0,0,0-1.519-3.785,7.029,7.029,0,0,0-4.554-1.262Z" transform="translate(54.975 0.205)" fill="#fff"/>
    <path id="Path-5" data-name="Path" d="M25.037,19.662c-1.18-5.419-8.253-5.87-12.731-7.173-.278-.081-.557-.156-.837-.228-2.352-.606-4.766-1.545-4.51-4.474C7.334,1.6,19.69,1.056,21.3,6.91h3.455C23.238-.838,11.51-1.568,6.306,2.238A7.264,7.264,0,0,0,5.021,12.766c2.974,3.306,8.817,3.475,13.079,4.876,1.992.541,3.793,2.026,3.713,4.265-.522,6.909-14.431,6.483-15.456-.072V19.49H0v.929a3.184,3.184,0,0,1,2.88,1.417C4.171,33.889,27.635,32.328,25.037,19.662Z" transform="translate(0.512 0.212)" fill="#fff"/>
  </g>
</svg>
